
<svg width="32" height="32" viewBox="0 0 32 32" fill="none" xmlns="http://www.w3.org/2000/svg">
  <rect width="32" height="32" rx="16" fill="#E11D48" />
  <path d="M9 12C9 10.3431 10.3431 9 12 9H20C21.6569 9 23 10.3431 23 12V20C23 21.6569 21.6569 23 20 23H12C10.3431 23 9 21.6569 9 20V12Z" fill="white" />
  <path d="M16 13C16.5523 13 17 12.5523 17 12C17 11.4477 16.5523 11 16 11C15.4477 11 15 11.4477 15 12C15 12.5523 15.4477 13 16 13Z" fill="#E11D48" />
  <path d="M16 21C16.5523 21 17 20.5523 17 20C17 19.4477 16.5523 19 16 19C15.4477 19 15 19.4477 15 20C15 20.5523 15.4477 21 16 21Z" fill="#E11D48" />
  <path d="M19 16C19 16.5523 19.4477 17 20 17C20.5523 17 21 16.5523 21 16C21 15.4477 20.5523 15 20 15C19.4477 15 19 15.4477 19 16Z" fill="#E11D48" />
  <path d="M12 17C12.5523 17 13 16.5523 13 16C13 15.4477 12.5523 15 12 15C11.4477 15 11 15.4477 11 16C11 16.5523 11.4477 17 12 17Z" fill="#E11D48" />
  <path fill-rule="evenodd" clip-rule="evenodd" d="M16.7071 15.2929C16.3166 14.9024 15.6834 14.9024 15.2929 15.2929C14.9024 15.6834 14.9024 16.3166 15.2929 16.7071L15.2929 16.7071C15.6834 17.0976 16.3166 17.0976 16.7071 16.7071L16.7071 16.7071C17.0976 16.3166 17.0976 15.6834 16.7071 15.2929L16.7071 15.2929Z" fill="#E11D48" />
</svg>
